<svg xmlns="http://www.w3.org/2000/svg" viewBox="0 0 1200 630" width="1200" height="630" role="img" aria-label="SteerLens">
  <defs>
    <linearGradient id="bg" x1="0%" y1="0%" x2="100%" y2="100%">
      <stop offset="0%" stop-color="#ebe7e2"/>
      <stop offset="55%" stop-color="#f7f5f3"/>
      <stop offset="100%" stop-color="#fbfaf8"/>
    </linearGradient>
    <radialGradient id="glowOcean" cx="16%" cy="16%" r="48%">
      <stop offset="0%" stop-color="#044a88" stop-opacity="0.14"/>
      <stop offset="100%" stop-color="#044a88" stop-opacity="0"/>
    </radialGradient>
    <radialGradient id="glowAmber" cx="90%" cy="20%" r="38%">
      <stop offset="0%" stop-color="#b87c18" stop-opacity="0.08"/>
      <stop offset="100%" stop-color="#b87c18" stop-opacity="0"/>
    </radialGradient>
  </defs>

  <rect width="1200" height="630" fill="url(#bg)"/>
  <rect width="1200" height="630" fill="url(#glowOcean)"/>
  <rect width="1200" height="630" fill="url(#glowAmber)"/>

  <g stroke="#041c38" stroke-opacity="0.05" stroke-width="1">
    <path d="M0 63 H1200 M0 126 H1200 M0 189 H1200 M0 252 H1200 M0 315 H1200 M0 378 H1200 M0 441 H1200 M0 504 H1200 M0 567 H1200"/>
    <path d="M80 0 V630 M160 0 V630 M240 0 V630 M320 0 V630 M400 0 V630 M480 0 V630 M560 0 V630 M640 0 V630 M720 0 V630 M800 0 V630 M880 0 V630 M960 0 V630 M1040 0 V630 M1120 0 V630"/>
  </g>

  <g transform="translate(704 218) scale(0.72)">
    <circle cx="66" cy="100" r="38" fill="#041c38"/>
    <circle cx="170" cy="100" r="38" fill="#041c38"/>
    <g transform="translate(276.65 92) rotate(-45)">
      <path fill="#041c38"
            d="M 34.87 -4.48 A 5.32 5.32 0 0 1 34.87 4.48 L -38.4 30.4 Q -14.4 0 -38.4 -30.4 Z"/>
    </g>
  </g>

  <text x="88" y="268"
        font-family="Fraunces, ui-serif, Georgia, serif"
        font-size="72" font-weight="600" fill="#041c38" letter-spacing="-1">
    SteerLens
  </text>
  <text x="88" y="340"
        font-family="Plus Jakarta Sans, ui-sans-serif, system-ui, sans-serif"
        font-size="28" font-weight="600" fill="#5c6570">
    Strategy, team shape, and evidence — aligned
  </text>
  <rect x="88" y="390" width="72" height="6" rx="3" fill="#044a88"/>
</svg>
